<mxfile host="app.diagrams.net" modified="2021-01-13T08:22:13.394Z" agent="5.0 (Windows NT 10.0; Win64; x64) AppleWebKit/537.36 (KHTML, like Gecko) Chrome/86.0.4240.198 Safari/537.36" etag="rgqG75v89cNAN81Z0V2m" version="14.1.9" type="github">
  <diagram id="Fu3Z2kfMd3koYUm9OHB-" name="Page-1">
    <mxGraphModel dx="782" dy="469" grid="1" gridSize="10" guides="1" tooltips="1" connect="1" arrows="1" fold="1" page="1" pageScale="1" pageWidth="827" pageHeight="1169" math="0" shadow="0">
      <root>
        <mxCell id="0" />
        <mxCell id="1" parent="0" />
        <mxCell id="IN1qaFq97HNPRjrlDNIa-1" value="JDK：支持java程序开发最小环境&lt;br&gt;JRE：支持java程序运行最小环境&lt;br&gt;JRE是JDK的子集" style="strokeWidth=2;html=1;shape=mxgraph.flowchart.annotation_1;align=left;pointerEvents=1;" vertex="1" parent="1">
          <mxGeometry x="80" y="20" width="50" height="100" as="geometry" />
        </mxCell>
        <mxCell id="IN1qaFq97HNPRjrlDNIa-2" value="" style="rounded=1;whiteSpace=wrap;html=1;absoluteArcSize=1;arcSize=14;strokeWidth=2;" vertex="1" parent="1">
          <mxGeometry x="320" y="90" width="370" height="280" as="geometry" />
        </mxCell>
        <mxCell id="IN1qaFq97HNPRjrlDNIa-3" value="运行时数据区" style="text;html=1;strokeColor=none;fillColor=none;align=center;verticalAlign=middle;whiteSpace=wrap;rounded=0;" vertex="1" parent="1">
          <mxGeometry x="450" y="90" width="100" height="20" as="geometry" />
        </mxCell>
        <mxCell id="IN1qaFq97HNPRjrlDNIa-4" value="本地方法栈" style="whiteSpace=wrap;html=1;aspect=fixed;" vertex="1" parent="1">
          <mxGeometry x="360" y="130" width="60" height="60" as="geometry" />
        </mxCell>
        <mxCell id="IN1qaFq97HNPRjrlDNIa-5" value="虚拟机栈" style="whiteSpace=wrap;html=1;aspect=fixed;" vertex="1" parent="1">
          <mxGeometry x="480" y="130" width="60" height="60" as="geometry" />
        </mxCell>
        <mxCell id="IN1qaFq97HNPRjrlDNIa-6" value="方法区" style="whiteSpace=wrap;html=1;aspect=fixed;" vertex="1" parent="1">
          <mxGeometry x="600" y="130" width="60" height="60" as="geometry" />
        </mxCell>
        <mxCell id="IN1qaFq97HNPRjrlDNIa-8" value="程序计数器" style="rounded=0;whiteSpace=wrap;html=1;" vertex="1" parent="1">
          <mxGeometry x="354" y="250" width="120" height="60" as="geometry" />
        </mxCell>
        <mxCell id="IN1qaFq97HNPRjrlDNIa-9" value="堆" style="whiteSpace=wrap;html=1;aspect=fixed;" vertex="1" parent="1">
          <mxGeometry x="570" y="250" width="60" height="60" as="geometry" />
        </mxCell>
        <mxCell id="IN1qaFq97HNPRjrlDNIa-10" value="直接内存" style="rounded=0;whiteSpace=wrap;html=1;" vertex="1" parent="1">
          <mxGeometry x="720" y="180" width="90" height="130" as="geometry" />
        </mxCell>
      </root>
    </mxGraphModel>
  </diagram>
</mxfile>
